<svg xmlns="http://www.w3.org/2000/svg" width="26.474" height="23.453" viewBox="0 0 26.474 23.453">
  <g id="bxs-group" transform="translate(-2 -3.168)">
    <path id="Path_5" data-name="Path 5" d="M12.45,15.147A5.573,5.573,0,1,0,6.877,9.573,5.579,5.579,0,0,0,12.45,15.147Zm2.09,1.393H10.36A8.369,8.369,0,0,0,2,24.9v1.393H22.9V24.9A8.369,8.369,0,0,0,14.54,16.54Z" transform="translate(0 0.327)" fill="#fff"/>
    <path id="Path_6" data-name="Path 6" d="M17.982,14.148a7.9,7.9,0,0,0,1.046-4.793,8.409,8.409,0,0,0-3.906-6.186l-1.54,2.321a5.68,5.68,0,0,1,2.672,4.144,5.146,5.146,0,0,1-1.494,4.161L13.1,15.455l2.254.662a8.342,8.342,0,0,1,5.965,7.718h2.787A11.119,11.119,0,0,0,17.982,14.148Z" transform="translate(4.367)" fill="#fff"/>
  </g>
</svg>
