<svg xmlns="http://www.w3.org/2000/svg" width="28.621" height="28.621" viewBox="0 0 28.621 28.621">
  <g id="bxs-map-pin" transform="translate(-2 -2)">
    <path id="Path_3" data-name="Path 3" d="M13.724,23.465,15.155,20.6V13.245a5.724,5.724,0,1,0-2.862,0V20.6Z" transform="translate(2.586 0)" fill="#fff"/>
    <path id="Path_4" data-name="Path 4" d="M22.416,10.563l-.763,2.759c3.708,1.025,6.1,3,6.1,5.021,0,2.708-4.7,5.724-11.448,5.724S4.862,21.051,4.862,18.344c0-2.026,2.4-4,6.106-5.023l-.763-2.759C5.144,11.962,2,14.942,2,18.344c0,4.814,6.287,8.586,14.31,8.586s14.31-3.772,14.31-8.586C30.621,14.942,27.477,11.962,22.416,10.563Z" transform="translate(0 3.69)" fill="#fff"/>
  </g>
</svg>
