<svg xmlns="http://www.w3.org/2000/svg" width="24" height="24" viewBox="0 0 24 24">
  <g id="bxs-conversation" transform="translate(-2 -2)">
    <path id="Path_7" data-name="Path 7" d="M15.2,16.4h4.2a1.8,1.8,0,0,0,1.8-1.8V3.8A1.8,1.8,0,0,0,19.4,2H3.8A1.8,1.8,0,0,0,2,3.8V21.2l6.4-4.8ZM4.4,16.28l.185-.019L4.4,16.4Z" fill="#fff"/>
    <path id="Path_8" data-name="Path 8" d="M23,8h-.6v7.2a2.4,2.4,0,0,1-2.388,2.4H8v.6A1.8,1.8,0,0,0,9.8,20h8.6l6.4,4.8V9.8A1.8,1.8,0,0,0,23,8Z" transform="translate(1.2 1.2)" fill="#fff"/>
  </g>
</svg>
