<svg xmlns="http://www.w3.org/2000/svg" width="360" height="238" viewBox="0 0 360 238">
  <g id="info-bg" transform="translate(0 -99)">
    <g id="Rectangle_17" data-name="Rectangle 17" transform="translate(0 99)" fill="#7c62a9" stroke="#707070" stroke-width="1">
      <rect width="360" height="238" stroke="none"/>
      <rect x="0.5" y="0.5" width="359" height="237" fill="none"/>
    </g>
    <g id="Group_46" data-name="Group 46" transform="translate(-165.504 75.947)">
      <path id="Path_1" data-name="Path 1" d="M217.2,295.231a2,2,0,0,1,2.031-1.876h54.311a12.813,12.813,0,0,0,8.938-3.581,11.978,11.978,0,0,0,3.7-8.688c-.025-6.766-5.835-12.182-12.829-12.182H214.32a4.724,4.724,0,0,1-4.124-2.348,60.758,60.758,0,0,0-6.132-8.866,1.961,1.961,0,0,1,1.589-3.193h50.762a12.821,12.821,0,0,0,8.94-3.581,11.977,11.977,0,0,0,3.7-8.687c-.025-6.766-5.835-12.182-12.829-12.182H142.512q-1.143-.027-2.293-.028c-42.548,0-77.04,28.147-77.04,62.869s34.491,62.871,77.04,62.871c21.88,0,41.629-7.44,55.65-19.4a9.97,9.97,0,0,1,6.458-2.378h64.366a12.822,12.822,0,0,0,8.94-3.581,11.985,11.985,0,0,0,3.7-8.688c-.023-6.764-5.833-12.182-12.827-12.182h-49.25a1.986,1.986,0,0,1-1.96-2.5A51.964,51.964,0,0,0,217.2,295.231ZM140.22,331.276c-25.979,0-47.038-17.186-47.038-38.387S114.241,254.5,140.22,254.5s47.038,17.186,47.038,38.387S166.2,331.276,140.22,331.276Z" transform="translate(170.82 -170.02)" fill="#6d5997"/>
      <ellipse id="Ellipse_1" data-name="Ellipse 1" cx="18.839" cy="18.692" rx="18.839" ry="18.692" transform="translate(371.986 185.74)" fill="#6d5997"/>
    </g>
  </g>
</svg>
