<svg id="landing-bg" xmlns="http://www.w3.org/2000/svg" width="1920" height="1080" viewBox="0 0 1920 1080">
  <rect id="Rectangle_2" data-name="Rectangle 2" width="1920" height="1080" fill="#fff"/>
  <rect id="Rectangle_3" data-name="Rectangle 3" width="960" height="1080" fill="#7c62a9"/>
  <g id="Group_2" data-name="Group 2" opacity="0.54">
    <path id="Path_2" data-name="Path 2" d="M794.71,343H960V209H460.63c-4.03,0-8.08-.25-12.13-.25-225.13,0-407.63,153.96-407.63,343.94S223.37,896.65,448.5,896.65c115.77,0,220.26-40.46,294.45-105.87A51.5,51.5,0,0,1,777.12,778H960V644H856.12a10.933,10.933,0,0,1-10.37-13.85,295.34,295.34,0,0,0,10.09-64.79A10.827,10.827,0,0,1,866.58,555H960V421H840.58a24.687,24.687,0,0,1-21.83-12.63,329.63,329.63,0,0,0-32.44-48.21A10.532,10.532,0,0,1,794.71,343ZM448.5,762.67c-137.46,0-248.89-94.03-248.89-210.03S311.04,342.61,448.5,342.61s248.88,94.03,248.88,210.03S585.96,762.67,448.5,762.67Z" fill="#615289"/>
    <ellipse id="Ellipse_2" data-name="Ellipse 2" cx="78.349" cy="64.745" rx="78.349" ry="64.745" transform="translate(732.751 817.057)" fill="#615289"/>
  </g>
</svg>
